<svg viewBox="0 0 800 400" fill="none" xmlns="http://www.w3.org/2000/svg">
  <defs>
    <linearGradient id="bgGradient" x1="0%" y1="0%" x2="100%" y2="100%">
      <stop offset="0%" stop-color="hsl(208, 100%, 50%)" stop-opacity="0.1" />
      <stop offset="100%" stop-color="hsl(45, 100%, 65%)" stop-opacity="0.1" />
    </linearGradient>
    <linearGradient id="truckGradient" x1="0%" y1="0%" x2="100%" y2="100%">
      <stop offset="0%" stop-color="hsl(208, 100%, 45%)" />
      <stop offset="100%" stop-color="hsl(208, 100%, 35%)" />
    </linearGradient>
    <linearGradient id="textGradient" x1="0%" y1="0%" x2="100%" y2="0%">
      <stop offset="0%" stop-color="hsl(215, 25%, 20%)" />
      <stop offset="50%" stop-color="hsl(208, 100%, 35%)" />
      <stop offset="100%" stop-color="hsl(215, 25%, 20%)" />
    </linearGradient>
  </defs>

  <rect width="800" height="400" fill="url(#bgGradient)" rx="20" />
  <rect x="0" y="300" width="800" height="100" fill="hsl(0, 0%, 30%)" />
  <rect x="0" y="340" width="800" height="8" fill="hsl(45, 100%, 70%)" />
  <rect x="0" y="352" width="800" height="8" fill="hsl(45, 100%, 70%)" />

  <g fill="hsl(0, 0%, 80%)">
    <rect x="50" y="370" width="40" height="4" rx="2" />
    <rect x="150" y="370" width="40" height="4" rx="2" />
    <rect x="250" y="370" width="40" height="4" rx="2" />
    <rect x="350" y="370" width="40" height="4" rx="2" />
    <rect x="450" y="370" width="40" height="4" rx="2" />
    <rect x="550" y="370" width="40" height="4" rx="2" />
    <rect x="650" y="370" width="40" height="4" rx="2" />
    <rect x="750" y="370" width="40" height="4" rx="2" />
  </g>

  <g transform="translate(150, 200)">
    <rect x="0" y="40" width="100" height="60" fill="url(#truckGradient)" rx="8" />
    <rect x="100" y="20" width="60" height="80" fill="url(#truckGradient)" rx="8" />
    <rect x="105" y="25" width="20" height="25" fill="hsl(200, 100%, 90%)" rx="3" />
    <rect x="130" y="25" width="25" height="25" fill="hsl(200, 100%, 90%)" rx="3" />
    <rect x="160" y="60" width="8" height="20" fill="hsl(208, 100%, 30%)" rx="4" />
    <circle cx="165" cy="45" r="8" fill="hsl(45, 100%, 85%)" />
    <circle cx="165" cy="45" r="5" fill="hsl(45, 100%, 95%)" />
    <circle cx="25" cy="100" r="18" fill="hsl(0, 0%, 15%)" />
    <circle cx="25" cy="100" r="12" fill="hsl(0, 0%, 25%)" />
    <circle cx="25" cy="100" r="6" fill="hsl(0, 0%, 50%)" />
    <circle cx="75" cy="100" r="18" fill="hsl(0, 0%, 15%)" />
    <circle cx="75" cy="100" r="12" fill="hsl(0, 0%, 25%)" />
    <circle cx="75" cy="100" r="6" fill="hsl(0, 0%, 50%)" />
    <circle cx="135" cy="100" r="18" fill="hsl(0, 0%, 15%)" />
    <circle cx="135" cy="100" r="12" fill="hsl(0, 0%, 25%)" />
    <circle cx="135" cy="100" r="6" fill="hsl(0, 0%, 50%)" />
    <rect x="5" y="45" width="90" height="2" fill="hsl(208, 100%, 25%)" />
    <rect x="5" y="85" width="90" height="2" fill="hsl(208, 100%, 25%)" />
    <rect x="148" y="55" width="4" height="8" fill="hsl(208, 100%, 25%)" rx="2" />
    <circle cx="10" cy="30" r="8" fill="hsl(0, 0%, 90%)" opacity="0.6" />
    <circle cx="25" cy="20" r="6" fill="hsl(0, 0%, 85%)" opacity="0.5" />
    <circle cx="35" cy="15" r="4" fill="hsl(0, 0%, 80%)" opacity="0.4" />
  </g>

  <g transform="translate(160, 230)">
    <rect x="0" y="0" width="20" height="20" fill="hsl(30, 80%, 70%)" stroke="hsl(30, 80%, 50%)" stroke-width="1" />
    <rect x="25" y="0" width="20" height="20" fill="hsl(45, 100%, 75%)" stroke="hsl(45, 100%, 55%)" stroke-width="1" />
    <rect x="50" y="0" width="20" height="20" fill="hsl(30, 80%, 70%)" stroke="hsl(30, 80%, 50%)" stroke-width="1" />
    <line x1="5" y1="5" x2="15" y2="15" stroke="hsl(30, 80%, 50%)" stroke-width="1" />
    <line x1="15" y1="5" x2="5" y2="15" stroke="hsl(30, 80%, 50%)" stroke-width="1" />
    <line x1="30" y1="5" x2="40" y2="15" stroke="hsl(45, 100%, 55%)" stroke-width="1" />
    <line x1="40" y1="5" x2="30" y2="15" stroke="hsl(45, 100%, 55%)" stroke-width="1" />
    <line x1="55" y1="5" x2="65" y2="15" stroke="hsl(30, 80%, 50%)" stroke-width="1" />
    <line x1="65" y1="5" x2="55" y2="15" stroke="hsl(30, 80%, 50%)" stroke-width="1" />
  </g>

  <text x="400" y="120" text-anchor="middle" fill="url(#textGradient)" font-size="52" font-weight="700" font-family="system-ui, -apple-system, sans-serif">
    Welcome to
  </text>
  <text x="400" y="180" text-anchor="middle" fill="hsl(208, 100%, 40%)" font-size="64" font-weight="800" font-family="system-ui, -apple-system, sans-serif">
    TPN Connect
  </text>
  <text x="400" y="220" text-anchor="middle" fill="hsl(215, 25%, 35%)" font-size="24" font-weight="500" font-family="system-ui, -apple-system, sans-serif">
    Your Trusted Logistics Partner
  </text>

  <g transform="translate(500, 250)">
    <rect x="0" y="0" width="24" height="24" fill="none" stroke="hsl(208, 100%, 40%)" stroke-width="2" rx="3" />
    <path d="M8 12h8M12 8v8" stroke="hsl(208, 100%, 40%)" stroke-width="2" stroke-linecap="round" />
  </g>

  <g transform="translate(480, 270)">
    <circle cx="12" cy="12" r="10" fill="none" stroke="hsl(45, 100%, 65%)" stroke-width="2" />
    <path d="M2 12h20M12 2a15.3 15.3 0 0 1 4 10a15.3 15.3 0 0 1-4 10a15.3 15.3 0 0 1-4-10a15.3 15.3 0 0 1 4-10z" stroke="hsl(45, 100%, 65%)" stroke-width="2" />
  </g>

  <g transform="translate(520, 270)">
    <circle cx="12" cy="12" r="10" fill="none" stroke="hsl(208, 100%, 40%)" stroke-width="2" />
    <polyline points="12,6 12,12 16,14" stroke="hsl(208, 100%, 40%)" stroke-width="2" stroke-linecap="round" stroke-linejoin="round" />
  </g>
</svg>
